<?xml version="1.0" encoding="UTF-8" standalone="no"?>
<!-- Created with Inkscape (http://www.inkscape.org/) -->

<svg
   width="108.06158mm"
   height="107.53639mm"
   viewBox="0 0 108.06159 107.5364"
   version="1.1"
   id="svg1"
   xml:space="preserve"
   inkscape:version="1.4.2 (f4327f4, 2025-05-13)"
   sodipodi:docname="maxiHertzlogo.svg"
   xmlns:inkscape="http://www.inkscape.org/namespaces/inkscape"
   xmlns:sodipodi="http://sodipodi.sourceforge.net/DTD/sodipodi-0.dtd"
   xmlns="http://www.w3.org/2000/svg"
   xmlns:svg="http://www.w3.org/2000/svg"><sodipodi:namedview
     id="namedview1"
     pagecolor="#ffffff"
     bordercolor="#000000"
     borderopacity="0.25"
     inkscape:showpageshadow="2"
     inkscape:pageopacity="0.0"
     inkscape:pagecheckerboard="0"
     inkscape:deskcolor="#d1d1d1"
     inkscape:document-units="mm"
     inkscape:zoom="0.72604517"
     inkscape:cx="199.71209"
     inkscape:cy="471.73374"
     inkscape:window-width="2048"
     inkscape:window-height="1017"
     inkscape:window-x="-8"
     inkscape:window-y="-8"
     inkscape:window-maximized="1"
     inkscape:current-layer="layer1" /><defs
     id="defs1" /><g
     inkscape:label="Layer 1"
     inkscape:groupmode="layer"
     id="layer1"
     transform="translate(-52.467977,-22.865028)"><g
       id="g2"><rect
         style="fill:#ffffff;fill-opacity:1;stroke-width:0.264583"
         id="rect1"
         width="102.76564"
         height="102.03681"
         x="55.026993"
         y="26.602453" /><path
         id="path1"
         style="fill:#0058b0"
         d="m 106.44828,22.865271 c -52.676946,0.0018 -49.396725,-0.04401 -50.918336,0.706417 -0.932916,0.460096 -2.133368,1.686776 -2.613277,2.670121 l -0.40411,0.82734 -0.03669,49.020263 c -0.02488,33.022748 0.0089,49.237388 0.103869,49.685338 0.376178,1.77364 1.527281,3.27139 3.084567,4.01423 0.541974,0.25852 1.140551,0.49763 1.330151,0.53123 0.189601,0.0336 22.403725,0.069 49.364946,0.078 40.49727,0.0142 49.14005,-0.0148 49.70963,-0.16691 2.10793,-0.56308 3.73196,-2.2026 4.2726,-4.31292 0.1876,-0.73213 0.2072,-6.19384 0.1757,-49.491034 -0.035,-48.069709 -0.039,-48.678403 -0.30799,-49.427474 -0.66276,-1.845613 -2.15949,-3.281431 -4.01836,-3.855578 -0.90778,-0.280367 -0.99969,-0.280653 -49.7427,-0.279053 z m 5.07308,9.63197 c 1.20924,-0.0064 2.84573,0.233193 4.90409,0.718303 3.31785,0.78194 6.02122,1.787084 9.06301,3.369303 4.90313,2.55041 8.85375,5.851406 12.04681,10.067086 2.7729,3.66097 4.40466,6.650964 5.61413,10.286194 1.2755,3.8337 1.77281,6.422373 1.9048,9.912573 0.0968,2.56097 -0.0244,3.106651 -0.77463,3.481441 -0.26544,0.13256 -0.76202,0.237544 -1.1033,0.232544 -1.49107,-0.02048 -1.7191,-0.412545 -1.84329,-3.164665 -0.14349,-3.17982 -0.75432,-6.178905 -1.97715,-9.711035 -3.93121,-11.35526 -15.25311,-20.062283 -27.79416,-21.374923 -1.02031,-0.1068 -1.85596,-0.262816 -1.98645,-0.371036 -0.56281,-0.466739 -0.80263,-2.105512 -0.39377,-2.689242 0.34872,-0.497865 1.13066,-0.750132 2.33991,-0.756543 z m -0.80564,9.840226 c 0.25117,-0.01084 0.53698,-6.03e-4 0.863,0.02894 4.87866,0.44209 10.09192,2.629311 14.22342,5.968111 1.49035,1.20439 3.64552,3.486846 4.72374,5.002796 1.08349,1.52336 2.65711,4.624617 3.26079,6.425447 1.0877,3.24467 1.53014,5.616158 1.53014,8.207768 0,1.95263 -0.13452,2.323745 -0.96274,2.655135 h -5.1e-4 c -0.30781,0.12319 -0.75965,0.222659 -1.00459,0.220659 -0.54621,-0.0038 -1.30684,-0.3628 -1.4888,-0.7028 -0.0742,-0.13868 -0.19557,-1.213308 -0.27027,-2.387968 -0.21425,-3.37041 -0.74438,-5.408484 -2.18798,-8.417574 -1.16204,-2.42218 -1.84039,-3.481378 -3.36052,-5.245158 -3.62752,-4.20895 -8.48719,-6.887983 -14.14022,-7.794873 -1.91293,-0.30688 -2.41016,-0.506756 -2.7125,-1.091406 -0.29412,-0.56884 -0.26651,-1.632702 0.0563,-2.162142 0.27623,-0.453045 0.7172,-0.674423 1.47071,-0.706934 z m -0.0837,9.779248 c 0.44085,-0.01862 0.98639,0.04541 1.65984,0.187069 3.24737,0.68311 5.992,2.199196 8.48269,4.684986 2.45673,2.45192 4.18876,5.527213 4.81883,8.556583 0.12568,0.60427 0.25945,1.750295 0.29765,2.546615 0.0618,1.28799 0.0389,1.496093 -0.20929,1.887223 -0.18444,0.29071 -0.45642,0.489194 -0.80305,0.585494 -1.06414,0.2955 -1.88178,0.121237 -2.312,-0.492993 -0.10959,-0.15646 -0.26555,-0.819455 -0.34675,-1.473295 -0.16837,-1.35499 -0.66544,-3.172571 -1.2454,-4.553211 -1.74682,-4.15847 -5.34402,-7.150748 -9.64076,-8.019148 -0.63907,-0.12916 -1.31114,-0.302407 -1.49345,-0.385507 -0.73213,-0.33357 -1.0974,-1.859281 -0.65164,-2.721281 0.2643,-0.511081 0.70857,-0.771506 1.44333,-0.802535 z m -35.126541,0.624252 c 2.14426,0.02224 2.362495,0.04838 3.063895,0.369486 0.41537,0.19016 1.020568,0.619664 1.345138,0.954464 0.66455,0.68549 3.034379,4.187233 5.620329,8.304403 0.95268,1.51681 2.599545,4.106781 3.659725,5.755721 5.03874,7.83702 5.625617,8.606899 6.264217,8.217069 0.48778,-0.29777 1.903283,-2.292822 4.990397,-7.033162 5.34554,-8.20819 5.94048,-8.973633 7.32978,-9.435083 0.79584,-0.26433 2.33216,-0.196081 3.51968,0.156579 1.95139,0.5795 5.00191,3.402937 6.15363,5.695777 0.85031,1.69281 0.93836,2.373769 1.02836,7.950419 0.0589,3.64901 0.13047,5.186073 0.25167,5.397603 0.0932,0.16266 0.36624,0.364235 0.60668,0.448035 0.62914,0.21936 8.67138,0.208417 9.15603,-0.0124 0.49669,-0.22631 0.75358,-0.788276 0.75758,-1.655196 0.004,-0.9113 0.35366,-1.703973 1.00614,-2.276863 0.61352,-0.53867 1.11452,-0.641207 2.7528,-0.564307 1.89351,0.0889 2.69103,0.5893 3.14399,1.97249 0.14044,0.42896 0.19125,2.842228 0.22945,10.857218 0.0547,11.47211 0.0936,10.959804 -0.87333,11.557434 -0.42971,0.26558 -0.6331,0.283996 -2.66496,0.243396 -1.96647,-0.03934 -2.2397,-0.07395 -2.57969,-0.328145 -0.91947,-0.68741 -0.8845,-0.472846 -0.9772,-6.024956 l -0.0842,-5.053955 -0.53588,-0.523482 -0.53641,-0.523482 -4.40696,-0.04031 -4.40645,-0.03979 -0.3328,0.33228 c -0.56741,0.56742 -0.62964,1.14064 -0.63045,5.8198 -7.5e-4,4.3064 -0.009,4.433534 -0.31109,5.033284 -0.21745,0.43122 -0.49579,0.718538 -0.93069,0.960148 -0.56013,0.31121 -0.8022,0.349208 -2.48926,0.391708 -2.63839,0.06647 -3.6151,-0.26894 -4.21059,-1.44539 -0.28391,-0.56092 -0.28891,-0.744046 -0.37311,-13.839466 -0.047,-7.29902 -0.1272,-13.309724 -0.1788,-13.357324 -0.0517,-0.0476 -0.11776,-0.02412 -0.14676,0.05168 -0.0972,0.25462 -5.47299,7.686405 -8.14834,11.264945 -2.688009,3.59548 -3.469991,4.431947 -4.965071,5.310787 -0.58033,0.34109 -0.786815,0.384822 -1.826245,0.379822 -2.22369,-0.0096 -3.341092,-0.840173 -5.547982,-4.123263 -0.76788,-1.14234 -2.274683,-3.318037 -3.348633,-4.834847 -1.84925,-2.61182 -3.684142,-5.245841 -5.041552,-7.237801 l -0.609782,-0.894519 -0.06976,12.684497 c -0.06448,11.65063 -0.09045,12.742943 -0.314192,13.402283 -0.32457,0.95645 -0.981151,1.786979 -1.822111,2.304769 h -5.17e-4 c -0.68187,0.41982 -0.712911,0.424905 -2.826701,0.465605 -2.07739,0.03996 -2.157561,0.03085 -2.864941,-0.324528 -0.40028,-0.2011 -0.880095,-0.564887 -1.066085,-0.808737 -0.73541,-0.96416 -0.786901,-1.324557 -0.902271,-6.284887 -0.1537,-6.62803 -0.148058,-34.753445 0.0078,-35.952845 0.21283,-1.63843 0.861097,-2.646731 2.137337,-3.324861 0.67374,-0.35799 0.742117,-0.365498 2.998267,-0.342098 z m 72.829661,56.353153 c 1.30631,-0.0651 2.50527,0.55232 2.92851,1.56528 0.26902,0.64386 0.24251,0.70841 -0.33073,0.80511 -0.2844,0.048 -0.62595,0.11708 -0.75861,0.15348 -0.16386,0.045 -0.28272,-0.0429 -0.37052,-0.27388 -0.4299,-1.13071 -2.62878,-0.99117 -2.62878,0.16691 0,0.59077 0.2451,0.79193 1.76475,1.44849 0.78085,0.33737 1.63154,0.77466 1.89032,0.97204 0.72435,0.5525 0.95571,1.68159 0.5457,2.66288 -0.29638,0.70934 -0.57927,0.99015 -1.37356,1.36323 -1.23623,0.58065 -3.09833,0.36514 -3.95789,-0.45837 -0.36041,-0.34529 -0.90985,-1.49466 -0.77773,-1.62678 0.0338,-0.0338 0.40442,-0.10159 0.82372,-0.15089 0.74639,-0.0877 0.76598,-0.0815 0.92966,0.31367 0.2415,0.58302 0.88089,0.91984 1.57096,0.82734 1.14949,-0.15419 1.67124,-1.01857 1.07332,-1.7787 -0.16096,-0.20463 -0.74198,-0.54849 -1.35134,-0.79995 -2.36088,-0.97425 -2.79253,-1.38226 -2.79208,-2.63912 4.4e-4,-1.23311 0.88203,-2.20533 2.24948,-2.47995 0.18904,-0.038 0.37821,-0.0615 0.56482,-0.0708 z m -54.661778,0.0765 0.91519,0.0408 0.914673,0.0408 1.739428,3.03392 1.739429,3.03341 0.03721,-3.06803 0.03721,-3.06803 h 0.755509 0.756029 v 4.48138 4.48138 h -0.808222 -0.808219 l -1.737879,-3.06803 c -0.95586,-1.68744 -1.802638,-3.16098 -1.881538,-3.27474 -0.10036,-0.14525 -0.132704,0.76828 -0.108004,3.06803 l 0.03514,3.27474 h -0.701249 c -0.38552,0 -0.742117,-0.0414 -0.792717,-0.092 -0.0505,-0.0506 -0.09198,-2.06987 -0.09198,-4.48758 z m -8.686808,0.0129 h 0.758093 0.75861 v 1.86138 1.86139 h 1.723409 1.723926 v -1.79214 -1.79266 h 0.758093 0.75861 v 4.41214 4.41265 h -0.754476 -0.754476 l -0.03876,-1.89601 -0.03824,-1.89601 h -1.654679 -1.654679 l -0.03824,1.89601 -0.03824,1.89601 H 85.74102 84.986544 v -4.48138 z m 26.336896,0 h 0.75602 0.75655 l 0.0367,3.75739 0.0367,3.75739 1.75803,0.0388 1.75803,0.0388 v 0.68523 0.68523 h -2.55126 -2.55075 v -4.48138 z m 9.8242,0 c 1.08119,0 1.50736,0.17628 2.38746,0.98753 0.83293,0.76777 1.08082,1.5633 1.08882,3.49385 0.008,1.95937 -0.20306,2.70533 -0.97875,3.45922 -0.32288,0.3138 -0.82287,0.68381 -1.11105,0.82217 -0.83885,0.40276 -1.91458,0.4111 -2.73058,0.0212 -0.86325,-0.41249 -1.65644,-1.27929 -1.87999,-2.05414 -0.0942,-0.32662 -0.17263,-1.30755 -0.17363,-2.17971 -0.004,-2.34749 0.38028,-3.21463 1.83968,-4.15531 0.52262,-0.33684 0.75234,-0.3948 1.55804,-0.3948 z m 13.89321,0 h 0.7581 0.75861 v 4.48138 4.48138 h -0.75861 -0.7581 v -4.48138 z m -5.06584,5.1e-4 c 1.62785,-0.002 2.99572,1.08354 2.99672,2.37764 l 5.2e-4,0.51728 -0.72399,-0.001 c -0.70519,-0.001 -0.7295,-0.0149 -0.94051,-0.51728 -0.43064,-1.02523 -1.68157,-1.27561 -2.58279,-0.51728 -1.05982,0.89178 -1.13704,4.09879 -0.12609,5.23586 0.41324,0.46482 1.28369,0.64352 1.97559,0.40566 0.69626,-0.23937 0.88108,-0.5167 0.88108,-1.3224 v -0.66353 h -0.83509 -0.83561 l 0.0424,-0.58601 0.0424,-0.58601 1.55133,-0.0388 1.55133,-0.0393 v 1.68052 1.68051 l -0.53899,0.51315 c -0.29666,0.2822 -0.83533,0.61424 -1.19683,0.73742 v -5.1e-4 c -1.1521,0.39256 -2.59188,0.23347 -3.54603,-0.39171 -0.96676,-0.63345 -1.55143,-2.40987 -1.43144,-4.34857 0.0966,-1.56161 0.48342,-2.57278 1.25729,-3.28611 0.68341,-0.62994 1.31683,-0.84856 2.45876,-0.84956 z m -49.866721,0.004 c 0.914808,0.0419 1.826932,0.37563 2.252575,0.91674 0.28032,0.35637 0.767325,1.67284 0.658875,1.78129 -0.03537,0.0354 -0.372768,0.10061 -0.749308,0.14521 -0.66727,0.079 -0.689027,0.0703 -0.864547,-0.35347 -0.26258,-0.63393 -0.768539,-0.9772 -1.440739,-0.9772 -1.18383,0 -1.781636,0.92722 -1.776636,2.75797 0.0016,0.64464 0.07865,1.44544 0.171049,1.77974 0.19192,0.69433 0.762839,1.33376 1.314649,1.47226 0.52755,0.1324 1.259467,-0.24999 1.607137,-0.83923 0.155396,-0.26337 0.3044,-0.47878 0.332796,-0.48214 l 5.17e-4,-5.1e-4 c 0.02669,0 0.355691,0.0663 0.731221,0.14676 l 0.682646,0.14624 -0.13746,0.5085 c -0.2058,0.75861 -0.707405,1.3338 -1.513085,1.73529 -1.76353,0.87881 -3.852856,0.0559 -4.490166,-1.76888 -0.31593,-0.90453 -0.347726,-4.02773 -0.04858,-4.76664 0.3083,-0.7615 1.109936,-1.66572 1.723926,-1.94458 0.44661,-0.20284 0.996241,-0.28252 1.545126,-0.25735 z m 26.036651,0.0176 c 0.91036,0.046 1.05489,0.0961 1.71359,0.59841 1.0716,0.81722 1.44657,1.67475 1.51257,3.45664 0.0913,2.46589 -0.38198,3.6411 -1.82469,4.53306 -0.51134,0.31613 -0.86042,0.42028 -1.51206,0.45268 -0.94952,0.0473 -1.46496,-0.13147 -2.31355,-0.80357 -0.72322,-0.5728 -1.06264,-1.28336 -1.2299,-2.57245 -0.27448,-2.11557 0.1592,-3.9438 1.13378,-4.778 0.90179,-0.7719 1.39028,-0.94387 2.52026,-0.88677 z m -31.485931,0.10955 -0.04134,0.72709 -0.04186,0.72709 -1.58595,0.0687 -1.58595,0.0692 0.01344,1.03404 0.01344,1.03456 1.331185,0.0393 1.331185,0.0393 v 0.67955 0.67954 l -1.344621,0.0398 -1.344104,0.0393 0.001,1.10329 5.16e-4,1.10277 1.756999,0.0388 1.756999,0.0388 v 0.68523 l 5.17e-4,0.68523 h -2.552816 -2.553333 l 0.03669,-4.37803 0.03617,-4.37803 2.385901,-0.0377 z m -12.852962,0.002 3.143994,0.0367 3.144511,0.0372 v 0.68937 0.68988 l -1.210779,0.0398 -1.211296,0.0398 0.03876,3.64887 0.03927,3.64887 -0.793234,-5.1e-4 h -0.792716 v -3.64836 -3.64887 l -1.137398,-0.0398 -1.137915,-0.0403 -0.04186,-0.72657 z m 77.095553,0.005 h 2.34404 2.34456 v 0.7581 0.75861 h -1.58595 -1.58595 v 1.10277 1.10329 h 1.38648 1.38648 l -0.0419,0.65526 -0.0419,0.65474 -1.34462,0.0398 -1.34462,0.0393 v 1.16685 1.16737 h 1.72393 1.72341 v 0.68936 0.68937 h -2.48202 -2.48202 v -4.41265 z m -17.68006,1.45676 c -0.55745,-0.005 -1.18134,0.32377 -1.49448,0.83044 -0.81273,1.31502 -0.50182,4.14204 0.52555,4.77904 0.61713,0.38264 1.45975,0.31296 2.00453,-0.16537 0.57705,-0.50665 0.78703,-1.18519 0.78703,-2.54351 0,-1.57209 -0.48612,-2.5234 -1.45211,-2.8422 -0.11695,-0.0386 -0.24188,-0.0573 -0.37052,-0.0584 z m -15.32206,0.008 c -0.44253,-1.7e-4 -0.86861,0.19125 -1.21853,0.56844 -0.47898,0.5163 -0.66559,1.14422 -0.66559,2.23708 0,1.24252 0.31194,2.23849 0.84026,2.68304 0.49639,0.41769 1.28699,0.47427 1.93631,0.13849 1.27647,-0.66009 1.37799,-4.41601 0.14263,-5.27616 -0.33684,-0.23454 -0.69089,-0.35075 -1.03508,-0.35089 z" /></g></g></svg>
